<svg xmlns="http://www.w3.org/2000/svg" viewBox="0 0 406.28 422.49"><defs><style>.cls-1{isolation:isolate;}.cls-2{fill:#c27e57;}.cls-20,.cls-22,.cls-27,.cls-3,.cls-8{fill:none;stroke-linecap:round;stroke-linejoin:round;}.cls-3{stroke:#fff0d6;}.cls-4{fill:#fff0d6;}.cls-5{fill:#eea02c;}.cls-6{fill:#e2972a;}.cls-7{fill:#fd2505;}.cls-27,.cls-8{stroke:#353436;}.cls-10,.cls-9{fill:#9e1200;}.cls-15,.cls-21,.cls-9{opacity:0.25;mix-blend-mode:multiply;}.cls-11,.cls-14{fill:#fbcd7e;}.cls-12,.cls-14{font-size:19.04px;font-family:Oswald-Bold, Oswald;font-weight:700;letter-spacing:0.2em;}.cls-12{fill:#4a5a6f;}.cls-13{letter-spacing:0.19em;}.cls-15,.cls-16{fill:#353436;}.cls-17{fill:#620704;}.cls-18,.cls-21{fill:#a08d8e;}.cls-19{fill:#403637;}.cls-20,.cls-22{stroke:#403637;}.cls-22,.cls-27{stroke-width:2px;}.cls-23{fill:#cfc0c0;}.cls-24{fill:#6d6d6e;}.cls-25{fill:#4d4645;}.cls-26{fill:#f7b150;}</style></defs><title>pic2</title><g class="cls-1"><g id="Objects"><path class="cls-2" d="M249.88,73.81A131.31,131.31,0,1,0,381.19,205.12,131.31,131.31,0,0,0,249.88,73.81Zm0,243.09A111.78,111.78,0,1,1,361.66,205.12,111.91,111.91,0,0,1,249.88,316.9Z" transform="translate(-46.61 -23.25)"/><circle class="cls-2" cx="249.88" cy="205.12" r="88.47" transform="translate(-49.24 383.73) rotate(-78.02)"/><path class="cls-2" d="M249.88,97.34A107.78,107.78,0,1,0,357.66,205.12,107.78,107.78,0,0,0,249.88,97.34Zm0,199.53a91.76,91.76,0,1,1,91.75-91.75A91.86,91.86,0,0,1,249.88,296.87Z" transform="translate(-46.61 -23.25)"/><path class="cls-3" d="M396.85,186.17a147.81,147.81,0,0,0-294,8" transform="translate(-46.61 -23.25)"/><path class="cls-4" d="M404.28,185a7.52,7.52,0,1,1-8.25-6.71A7.52,7.52,0,0,1,404.28,185Z" transform="translate(-46.61 -23.25)"/><polygon class="cls-4" points="49.15 165.88 56.27 193.02 63.68 165.95 49.15 165.88"/><path class="cls-4" d="M392.71,102.66A31.37,31.37,0,1,0,361.35,134,31.36,31.36,0,0,0,392.71,102.66Z" transform="translate(-46.61 -23.25)"/><path class="cls-5" d="M376.55,119H346.14a3.43,3.43,0,0,1-3.4-3l-2.88-22.57h43L380,116A3.43,3.43,0,0,1,376.55,119Z" transform="translate(-46.61 -23.25)"/><polygon class="cls-6" points="335.47 76.14 335.69 74.65 293.8 74.65 294.06 76.14 335.47 76.14"/><path class="cls-7" d="M382.3,90.87H340.4a3.51,3.51,0,0,0-3.51,3.51h0a3.51,3.51,0,0,0,3.51,3.52h41.9a3.51,3.51,0,0,0,3.51-3.52h0A3.51,3.51,0,0,0,382.3,90.87Z" transform="translate(-46.61 -23.25)"/><path class="cls-8" d="M382.3,90.87H340.4a3.52,3.52,0,0,0,0,7h0l2.31,18.1a3.43,3.43,0,0,0,3.4,3h30.41a3.43,3.43,0,0,0,3.41-3l2.31-18.1h0a3.52,3.52,0,0,0,0-7Z" transform="translate(-46.61 -23.25)"/><path class="cls-9" d="M382.52,91.06l-9.69,1a1.23,1.23,0,0,0-.88.51l-8.23.86a2.61,2.61,0,0,0-4.75,0l-8.22-.84a1.24,1.24,0,0,0-.89-.51l-9.84-1a3.43,3.43,0,0,0-2.4,2.29l12,1.22a1.25,1.25,0,0,0,1-.32l8.22.84a2.62,2.62,0,0,0,5.1,0l8.22-.86a1.25,1.25,0,0,0,1,.32l12-1.25A3.42,3.42,0,0,0,382.52,91.06Z" transform="translate(-46.61 -23.25)"/><path class="cls-10" d="M361.35,115.36h0A2.25,2.25,0,0,1,359,113.3l-.22-10.5a2.54,2.54,0,0,1,2.57-2.57h0a2.54,2.54,0,0,1,2.57,2.57l-.22,10.5A2.25,2.25,0,0,1,361.35,115.36Z" transform="translate(-46.61 -23.25)"/><path class="cls-10" d="M349.78,115.36h0a2.56,2.56,0,0,1-2.57-2.06l-1.36-10.5a2.25,2.25,0,0,1,2.3-2.57h0A2.9,2.9,0,0,1,351,102.8l.91,10.5A2,2,0,0,1,349.78,115.36Z" transform="translate(-46.61 -23.25)"/><path class="cls-10" d="M372.9,115.36h0a2.54,2.54,0,0,0,2.56-2.06l1.36-10.5a2.24,2.24,0,0,0-2.29-2.57h0a2.9,2.9,0,0,0-2.85,2.57l-.91,10.5A2,2,0,0,0,372.9,115.36Z" transform="translate(-46.61 -23.25)"/><path class="cls-11" d="M360.12,113.3l-.23-10.5a2.54,2.54,0,0,1,2-2.51,2.6,2.6,0,0,0-.56-.06,2.54,2.54,0,0,0-2.57,2.57l.22,10.5a2.25,2.25,0,0,0,2.35,2.06,2.6,2.6,0,0,0,.56-.07A2.16,2.16,0,0,1,360.12,113.3Z" transform="translate(-46.61 -23.25)"/><path class="cls-11" d="M348.34,113.3,347,102.8a2.22,2.22,0,0,1,1.74-2.51,2.6,2.6,0,0,0-.56-.06,2.25,2.25,0,0,0-2.3,2.57l1.36,10.5a2.56,2.56,0,0,0,2.57,2.06,2.36,2.36,0,0,0,.55-.07A2.5,2.5,0,0,1,348.34,113.3Z" transform="translate(-46.61 -23.25)"/><path class="cls-11" d="M371.9,113.3l.91-10.5a2.9,2.9,0,0,1,2.28-2.51,2.44,2.44,0,0,0-.55-.06,2.9,2.9,0,0,0-2.85,2.57l-.91,10.5a2,2,0,0,0,2.13,2.06,2.6,2.6,0,0,0,.56-.07A1.89,1.89,0,0,1,371.9,113.3Z" transform="translate(-46.61 -23.25)"/><rect class="cls-10" x="361.3" y="91.67" width="20.8" height="1.69" transform="translate(-54.21 15.85) rotate(-5.96)"/><path class="cls-5" d="M386,92.3l-12.88,1.34a1.27,1.27,0,0,1-1.39-1.12h0a1.27,1.27,0,0,1,1.13-1.39l12.88-1.35a1.26,1.26,0,0,1,1.39,1.13h0A1.27,1.27,0,0,1,386,92.3Z" transform="translate(-46.61 -23.25)"/><rect class="cls-10" x="340.59" y="91.7" width="20.8" height="1.69" transform="translate(644.21 196.89) rotate(-174.19)"/><path class="cls-5" d="M336.72,92.36l12.89,1.31A1.26,1.26,0,0,0,351,92.54h0a1.26,1.26,0,0,0-1.13-1.38L337,89.84A1.27,1.27,0,0,0,335.59,91h0A1.27,1.27,0,0,0,336.72,92.36Z" transform="translate(-46.61 -23.25)"/><path class="cls-5" d="M363.93,93.43A2.56,2.56,0,1,0,361.37,96,2.56,2.56,0,0,0,363.93,93.43Z" transform="translate(-46.61 -23.25)"/><line class="cls-8" x1="293.79" y1="74.65" x2="335.69" y2="74.65"/><path class="cls-8" d="M361.35,115.36h0A2.25,2.25,0,0,1,359,113.3l-.22-10.5a2.54,2.54,0,0,1,2.57-2.57h0a2.54,2.54,0,0,1,2.57,2.57l-.22,10.5A2.25,2.25,0,0,1,361.35,115.36Z" transform="translate(-46.61 -23.25)"/><path class="cls-8" d="M349.78,115.36h0a2.56,2.56,0,0,1-2.57-2.06l-1.36-10.5a2.25,2.25,0,0,1,2.3-2.57h0A2.9,2.9,0,0,1,351,102.8l.91,10.5A2,2,0,0,1,349.78,115.36Z" transform="translate(-46.61 -23.25)"/><path class="cls-8" d="M372.9,115.36h0a2.54,2.54,0,0,0,2.56-2.06l1.36-10.5a2.24,2.24,0,0,0-2.29-2.57h0a2.9,2.9,0,0,0-2.85,2.57l-.91,10.5A2,2,0,0,0,372.9,115.36Z" transform="translate(-46.61 -23.25)"/><circle class="cls-4" cx="262.78" cy="64.93" r="41.68" transform="translate(-53.9 23.5) rotate(-10.03)"/><path class="cls-10" d="M283.59,77.44H242A13.41,13.41,0,0,1,228.6,64.93c0,.31,0,1.81,0,2.12A13.41,13.41,0,0,0,242,80.46h41.62A13.41,13.41,0,0,0,297,67.05c0-.31,0-1.81,0-2.12A13.41,13.41,0,0,1,283.59,77.44Z" transform="translate(-46.61 -23.25)"/><path class="cls-7" d="M283.59,51.52H242a13.41,13.41,0,0,0-13.41,13.41h0A13.41,13.41,0,0,0,242,78.35h41.62A13.41,13.41,0,0,0,297,64.93h0A13.41,13.41,0,0,0,283.59,51.52Z" transform="translate(-46.61 -23.25)"/><text class="cls-12" transform="translate(195.79 49.37)">BU<tspan class="cls-13" x="30" y="0">Y</tspan></text><text class="cls-14" transform="translate(195.79 49.37)">BU<tspan class="cls-13" x="30" y="0">Y</tspan></text><path class="cls-15" d="M283.37,73.73l0,0a4,4,0,0,0-1.07-3.58l-2.3-2.3h0l-2.51-2.51a2,2,0,0,0-2.8,0h0a2,2,0,0,0-.25,2.5h0l-.42-.42a2,2,0,1,0-2.8,2.8l-.45-.45a2,2,0,1,0-2.8,2.8l-4.22-4.22a2,2,0,1,0-2.8,2.8l6.27,6.27a1.8,1.8,0,0,0-.45.33l-.08.07a2,2,0,0,0,0,2.86l2.14,2.14a4,4,0,0,0,4.79.67l0,0,6.23,6.23L289.6,80Z" transform="translate(-46.61 -23.25)"/><path class="cls-8" d="M297,64.93a13.41,13.41,0,0,0-13.41-13.41H242a13.41,13.41,0,0,0-13.41,13.41h0c0,.19,0,.36,0,.54,0,.57,0,1.36,0,1.58A13.41,13.41,0,0,0,242,80.46h41.62A13.41,13.41,0,0,0,297,67.05c0-.22,0-1,0-1.58,0-.18,0-.35,0-.54Z" transform="translate(-46.61 -23.25)"/><path class="cls-5" d="M284.14,68.25l-1.51-1.5h0l-3.28-3.29a2,2,0,0,0-3,2.49s0,0,0,0h0l-.43-.43a2,2,0,0,0-2.79,2.8l-.45-.45a2,2,0,0,0-2.79,2.79l.87.87h0l-5.09-5.08a2,2,0,0,0-2.79,2.79l6.26,6.26a1.8,1.8,0,0,0-.45.33l-.07.07a2,2,0,0,0,0,2.85l2.13,2.13a4,4,0,0,0,5.7,0h0A4,4,0,0,0,278,80l6.13-6.13A3.94,3.94,0,0,0,284.14,68.25Z" transform="translate(-46.61 -23.25)"/><rect class="cls-11" x="275.82" y="75.7" width="13.91" height="6.9" transform="translate(-19.75 199.87) rotate(-45)"/><circle class="cls-4" cx="151.17" cy="99.77" r="46.53" transform="translate(-72.88 112.87) rotate(-45)"/><rect class="cls-6" x="93.54" y="50.64" width="19.72" height="21.64"/><circle class="cls-11" cx="103.4" cy="61.46" r="5.51"/><path class="cls-16" d="M153.5,84.81a1.7,1.7,0,0,1-.57,1.31,2.6,2.6,0,0,1-1.6.47l-.19-1.3a2.12,2.12,0,0,0,.93-.15.46.46,0,0,0,.29-.44c0-.25-.17-.38-.5-.38a1.23,1.23,0,0,0-.68.18,3.12,3.12,0,0,0-.62.57l-.52.6a3.38,3.38,0,0,1-.79.68,1.86,1.86,0,0,1-1,.24,1.66,1.66,0,0,1-1.25-.46,1.84,1.84,0,0,1-.52-1.24h-.81v-.43h.8a1.29,1.29,0,0,1,.6-1.17,3,3,0,0,1,1.33-.33l.16,1.31a3,3,0,0,0-.77.1.31.31,0,0,0-.22.34.34.34,0,0,0,.16.31.67.67,0,0,0,.37.11,1,1,0,0,0,.59-.17,3.21,3.21,0,0,0,.53-.49l.5-.58a4,4,0,0,1,.93-.78,2.24,2.24,0,0,1,1.12-.27,1.71,1.71,0,0,1,1.16.41,1.67,1.67,0,0,1,.55,1.13h.84v.43Z" transform="translate(-46.61 -23.25)"/><rect class="cls-5" x="155.95" y="77.7" width="19.72" height="21.64" transform="translate(64.54 -114.57) rotate(45)"/><path class="cls-11" d="M171.32,88.52a5.51,5.51,0,1,0-5.51,5.5A5.51,5.51,0,0,0,171.32,88.52Z" transform="translate(-46.61 -23.25)"/><path class="cls-16" d="M168.2,91.05a1.69,1.69,0,0,1-1.32.53,2.62,2.62,0,0,1-1.46-.8l.78-1a2.36,2.36,0,0,0,.76.55.45.45,0,0,0,.51-.11c.18-.18.16-.39-.08-.62a1.16,1.16,0,0,0-.61-.35,3,3,0,0,0-.83,0l-.79.06a3.42,3.42,0,0,1-1-.07,1.82,1.82,0,0,1-.86-.54,1.66,1.66,0,0,1-.57-1.2,1.92,1.92,0,0,1,.51-1.25l-.56-.57.3-.3.56.56a1.3,1.3,0,0,1,1.26-.4,3,3,0,0,1,1.17.71l-.82,1a2.65,2.65,0,0,0-.61-.48.38.38,0,0,0-.5.42.6.6,0,0,0,.18.33.94.94,0,0,0,.54.31,3.25,3.25,0,0,0,.72,0l.76-.05a4.12,4.12,0,0,1,1.21.11,2.24,2.24,0,0,1,1,.59,1.7,1.7,0,0,1,.52,1.12,1.63,1.63,0,0,1-.41,1.18l.6.6-.31.3Z" transform="translate(-46.61 -23.25)"/><rect class="cls-17" x="81.52" y="65.94" width="46.09" height="36.44" rx="4.62"/><rect class="cls-7" x="81.52" y="70.57" width="46.09" height="26.26"/><path class="cls-17" d="M163.14,111.23h11.08v-8.57H163.14a4.28,4.28,0,0,0-4.28,4.29h0A4.28,4.28,0,0,0,163.14,111.23Z" transform="translate(-46.61 -23.25)"/><path class="cls-11" d="M165.71,107a2.59,2.59,0,1,0-2.59,2.58A2.59,2.59,0,0,0,165.71,107Z" transform="translate(-46.61 -23.25)"/><rect class="cls-8" x="81.52" y="65.94" width="46.09" height="36.44" rx="4.62"/><path class="cls-5" d="M139.84,107.6a11.26,11.26,0,1,0-11.26,11.26A11.26,11.26,0,0,0,139.84,107.6Z" transform="translate(-46.61 -23.25)"/><path class="cls-11" d="M127.9,115.43a3.85,3.85,0,0,1-2.94-1.26,5.81,5.81,0,0,1-1-3.59l2.9-.44a5.21,5.21,0,0,0,.34,2.1,1,1,0,0,0,1,.63c.57,0,.85-.37.85-1.12a2.76,2.76,0,0,0-.41-1.52,6.94,6.94,0,0,0-1.26-1.4L126,107.67a7.81,7.81,0,0,1-1.54-1.78,4.24,4.24,0,0,1-.52-2.22,3.84,3.84,0,0,1,1-2.81,4.22,4.22,0,0,1,2.8-1.17v-1.8h1v1.78a2.91,2.91,0,0,1,2.62,1.36,6.49,6.49,0,0,1,.73,3l-2.94.36a6.4,6.4,0,0,0-.21-1.73.7.7,0,0,0-.77-.5.76.76,0,0,0-.69.37,1.46,1.46,0,0,0-.24.82,2.23,2.23,0,0,0,.37,1.34,7.2,7.2,0,0,0,1.11,1.18L130,107a9.28,9.28,0,0,1,1.75,2.1,4.89,4.89,0,0,1,.62,2.51,3.79,3.79,0,0,1-.94,2.61,3.67,3.67,0,0,1-2.53,1.22v1.9h-1Z" transform="translate(-46.61 -23.25)"/><path class="cls-4" d="M79.41,215.75a28.33,28.33,0,0,1,20.87,47.52h0l7.46,13.05L92.7,269.17v0a28.36,28.36,0,1,1-13.3-53.4Z" transform="translate(-46.61 -23.25)"/><rect class="cls-10" x="14.93" y="209.11" width="12.66" height="25.79"/><rect class="cls-7" x="27.59" y="209.11" width="23.09" height="25.79"/><polygon class="cls-15" points="27.59 209.11 14.93 209.11 14.93 211.33 14.93 218.16 20.39 218.16 27.59 211.33 34.79 218.16 50.68 218.16 50.68 211.33 50.68 209.11 27.59 209.11"/><polygon class="cls-10" points="50.68 209.11 27.59 209.11 34.79 215.94 57.88 215.94 50.68 209.11"/><polygon class="cls-7" points="14.93 209.11 27.59 209.11 20.39 215.94 7.73 215.94 14.93 209.11"/><polygon class="cls-8" points="57.88 215.94 50.68 209.11 27.59 209.11 14.93 209.11 7.73 215.94 14.93 215.94 14.93 234.9 27.59 234.9 50.68 234.9 50.68 215.94 57.88 215.94"/><polygon class="cls-8" points="50.68 209.11 27.59 209.11 34.79 215.94 57.88 215.94 50.68 209.11"/><polygon class="cls-8" points="14.93 209.11 7.73 215.94 20.39 215.94 27.59 209.11 14.93 209.11"/><path class="cls-18" d="M435.58,257.22c6.68,3.86,6.72,10.11.08,14L202.34,406.88c-6.64,3.86-17.44,3.86-24.12,0L52.7,334.47c-6.68-3.86-6.72-10.12-.08-14L285.94,184.81c6.64-3.86,17.44-3.86,24.12,0Z" transform="translate(-46.61 -23.25)"/><path class="cls-19" d="M382.32,238a1.29,1.29,0,0,1,0,2.45,4.62,4.62,0,0,1-4.22,0L339.26,218c-1.17-.68-1.19-1.78,0-2.46a4.67,4.67,0,0,1,4.23,0Z" transform="translate(-46.61 -23.25)"/><path class="cls-20" d="M382.32,238a1.29,1.29,0,0,1,0,2.45,4.62,4.62,0,0,1-4.22,0L339.26,218c-1.17-.68-1.19-1.78,0-2.46a4.67,4.67,0,0,1,4.23,0Z" transform="translate(-46.61 -23.25)"/><polygon class="cls-4" points="373.4 252.87 230.89 170.65 215.58 179.55 215.58 179.55 215.58 179.55 21.66 292.32 164.17 374.54 358.09 261.77 358.09 261.77 358.09 261.77 373.4 252.87"/><path class="cls-21" d="M346.41,233.65l-218,88.7-4.9,4.9A9.31,9.31,0,0,0,125.6,342l57.05,31.27a9.31,9.31,0,0,0,8.79.09l14-7.3a2.28,2.28,0,0,1,2.5.22,14.14,14.14,0,0,0,16.58,1.17c13-7.67,26.67-15.95,23.45-20.7a2.24,2.24,0,0,1,.94-3.11l56.44-32.28a2.3,2.3,0,0,1,2.47.1c2.11,1.49,6.85,4.16,11.41,2,5.66-2.69,29.83-13.37,25.75-20.81a2.28,2.28,0,0,1,1-3l49.33-27.79Z" transform="translate(-46.61 -23.25)"/><polygon class="cls-19" points="235.58 173.35 230.89 170.65 215.58 179.55 215.58 179.55 215.58 179.55 21.66 292.32 26.35 295.03 235.58 173.35"/><polygon class="cls-19" points="373.4 252.87 230.89 170.65 228.67 171.94 371.18 254.16 373.4 252.87"/><polygon class="cls-20" points="373.4 252.87 230.89 170.65 215.58 179.55 215.58 179.55 215.58 179.55 21.66 292.32 164.17 374.54 358.09 261.77 358.09 261.77 358.09 261.77 373.4 252.87"/><path class="cls-16" d="M440.61,264.4a4.6,4.6,0,0,1-.11,1,5.26,5.26,0,0,1-.27,1,7.9,7.9,0,0,1-.46,1,7.77,7.77,0,0,1-.68,1,10.17,10.17,0,0,1-1.06,1.14,12.88,12.88,0,0,1-2.16,1.6l-.21.12L202.34,406.88a19.06,19.06,0,0,1-3.73,1.64,24.21,24.21,0,0,1-3.23.81c-.72.13-1.45.23-2.18.3s-1.26.11-1.89.13-1.17,0-1.75,0-1.12,0-1.68-.09-1.11-.11-1.66-.19-1.14-.18-1.69-.29-1.2-.27-1.78-.44a19.35,19.35,0,0,1-2.07-.7,17.45,17.45,0,0,1-2.46-1.18L52.7,334.47c-3.36-1.94-5-4.49-5-7l0,21.58c0,2.55,1.67,5.1,5,7l125.51,72.41a17.45,17.45,0,0,0,2.46,1.18,20.13,20.13,0,0,0,2.07.7c.58.17,1.18.31,1.78.44s1.12.21,1.69.29,1.11.14,1.66.19l1.68.09c.59,0,1.17,0,1.75,0s1.27-.07,1.9-.13,1.46-.17,2.17-.3a23.84,23.84,0,0,0,3.23-.81,19.16,19.16,0,0,0,3.74-1.64L435.61,292.78l.21-.13a13.21,13.21,0,0,0,2.15-1.6,10,10,0,0,0,1.06-1.13,10.18,10.18,0,0,0,.69-1,6.61,6.61,0,0,0,.45-1,6.23,6.23,0,0,0,.28-1,6.4,6.4,0,0,0,.11-1v-.16l.06-21.58A.76.76,0,0,1,440.61,264.4Z" transform="translate(-46.61 -23.25)"/><path class="cls-22" d="M440.61,264.4a4.6,4.6,0,0,1-.11,1,5.26,5.26,0,0,1-.27,1,7.9,7.9,0,0,1-.46,1,7.77,7.77,0,0,1-.68,1,10.17,10.17,0,0,1-1.06,1.14,12.88,12.88,0,0,1-2.16,1.6l-.21.12L202.34,406.88a19.06,19.06,0,0,1-3.73,1.64,24.21,24.21,0,0,1-3.23.81c-.72.13-1.45.23-2.18.3s-1.26.11-1.89.13-1.17,0-1.75,0-1.12,0-1.68-.09-1.11-.11-1.66-.19-1.14-.18-1.69-.29-1.2-.27-1.78-.44a19.35,19.35,0,0,1-2.07-.7,17.45,17.45,0,0,1-2.46-1.18L52.7,334.47c-3.36-1.94-5-4.49-5-7l0,21.58c0,2.55,1.67,5.1,5,7l125.51,72.41a17.45,17.45,0,0,0,2.46,1.18,20.13,20.13,0,0,0,2.07.7c.58.17,1.18.31,1.78.44s1.12.21,1.69.29,1.11.14,1.66.19l1.68.09c.59,0,1.17,0,1.75,0s1.27-.07,1.9-.13,1.46-.17,2.17-.3a23.84,23.84,0,0,0,3.23-.81,19.16,19.16,0,0,0,3.74-1.64L435.61,292.78l.21-.13a13.21,13.21,0,0,0,2.15-1.6,10,10,0,0,0,1.06-1.13,10.18,10.18,0,0,0,.69-1,6.61,6.61,0,0,0,.45-1,6.23,6.23,0,0,0,.28-1,6.4,6.4,0,0,0,.11-1v-.16l.06-21.58A.76.76,0,0,1,440.61,264.4Z" transform="translate(-46.61 -23.25)"/><path class="cls-22" d="M435.58,257.22c6.68,3.86,6.72,10.11.08,14L202.34,406.88c-6.64,3.86-17.44,3.86-24.12,0L52.7,334.47c-6.68-3.86-6.72-10.12-.08-14L285.94,184.81c6.64-3.86,17.44-3.86,24.12,0Z" transform="translate(-46.61 -23.25)"/><path class="cls-18" d="M141.72,366.83c2.43,1.4,2.43,3.67,0,5.07a5,5,0,0,0,.48-.34,9.72,9.72,0,0,1-8.14-.28l-19.74-11.39c-2.23-1.28-2.39-3.31-.51-4.71a6.36,6.36,0,0,0-.59.28,9.64,9.64,0,0,1,8.75,0Z" transform="translate(-46.61 -23.25)"/><path class="cls-23" d="M142.22,371.56a5,5,0,0,1-.48.34,9.62,9.62,0,0,1-8.74,0l-19.73-11.38c-2.42-1.4-2.44-3.66,0-5.06a6.36,6.36,0,0,1,.59-.28c-1.88,1.4-1.72,3.43.51,4.71l19.74,11.39A9.72,9.72,0,0,0,142.22,371.56Z" transform="translate(-46.61 -23.25)"/><path class="cls-20" d="M141.72,366.83,122,355.45a9.64,9.64,0,0,0-8.75,0c-2.41,1.4-2.39,3.66,0,5.06L133,371.9a9.62,9.62,0,0,0,8.74,0,3.8,3.8,0,0,0,.44-.31C144.11,370.18,144,368.13,141.72,366.83Z" transform="translate(-46.61 -23.25)"/><line class="cls-8" x1="396.7" y1="277.23" x2="163.38" y2="412.91"/><line class="cls-8" x1="405.78" y1="286.31" x2="172.46" y2="421.99"/><path class="cls-16" d="M339.83,279.14c0-.08,0-.17,0-.29a15.88,15.88,0,0,0-1.94-7.55c-3-5-9.05-6.11-16.05-2.07a27.76,27.76,0,0,0-2.51,1.65l-16-9.39c-.49.29-1,.6-1.45.93-.16.1-.31.22-.46.33l-1,.72-.52.43-.86.75-.51.48-.32.3c-.12.11-.22.24-.33.35-.34.35-.68.71-1,1.08l-.33.34c-.08.1-.16.21-.25.31s-.4.48-.59.73a6.08,6.08,0,0,0-.39.47l-.3.4-.42.58-.29.39-.47.69c-.09.15-.2.29-.29.44l-.12.19c-.27.42-.54.85-.79,1.28l-.05.09-.15.26c-.17.31-.35.62-.51.93-.08.15-.15.3-.23.44l-.23.46c-.06.13-.14.26-.2.4-.17.36-.33.71-.49,1.08l-.09.19a.08.08,0,0,0,0,.05c-.2.45-.39.91-.56,1.36a2.67,2.67,0,0,0-.09.26c-.07.16-.12.33-.18.5s-.17.45-.25.68-.11.36-.16.54-.13.41-.19.62-.09.26-.12.39-.11.46-.17.7-.14.52-.19.78c0,.09-.05.18-.07.27s-.06.37-.1.56c-.07.4-.15.81-.2,1.21,0,.11-.05.23-.06.34s-.05.5-.08.75,0,.36,0,.54c0,.57-.07,1.13-.07,1.69a14.57,14.57,0,0,0,1.2,6.07,8.15,8.15,0,0,0,3.24,3.68l18.51,10.87c-2.73-1.59-4.42-5-4.44-9.75,0-.55,0-1.12.07-1.68l.06-.54c0-.36.08-.73.13-1.09s.13-.81.21-1.22.1-.55.16-.83.12-.52.19-.78.18-.72.29-1.08.12-.42.19-.63l.18-.53c.07-.23.15-.46.23-.69l.18-.5c.21-.56.43-1.12.67-1.67l.09-.19.24-.52.45-1c.08-.15.16-.3.23-.45.24-.46.49-.92.75-1.37l.14-.27c.31-.52.63-1,1-1.55l.29-.44c.25-.37.5-.73.76-1.09l.42-.57.38-.49.31-.39.59-.72.58-.66c.33-.37.67-.73,1-1.08l.65-.64.51-.48.87-.76.51-.42c.32-.26.64-.49,1-.73l.45-.33c.48-.33,1-.64,1.45-.92,8.4-4.85,15.23-.95,15.26,8.7l2.73-1.57Z" transform="translate(-46.61 -23.25)"/><path class="cls-7" d="M249.67,225.66,362.35,160.6a14.31,14.31,0,0,0-5.15-5.16l-5-2.91-51.55-30a14.17,14.17,0,0,0-14.18,0L186.1,180.49a14.1,14.1,0,0,0-5.19,5.21Z" transform="translate(-46.61 -23.25)"/><path class="cls-17" d="M180.91,185.7a14.18,14.18,0,0,0-1.89,7.09l0,12.19L249.73,246l-.06-20.38Z" transform="translate(-46.61 -23.25)"/><path class="cls-10" d="M364.24,167.64a14.23,14.23,0,0,0-1.89-7L249.67,225.66l.06,20.38.21,76,55.9-32.28c3-8.42,9-16.52,16-20.56s13.07-2.94,16.05,2.07l26.61-15.37Z" transform="translate(-46.61 -23.25)"/><path class="cls-17" d="M364.49,255.94l0,9.31L339.83,279.5v-.61a15.72,15.72,0,0,0-2-7.58Z" transform="translate(-46.61 -23.25)"/><path class="cls-11" d="M321.87,280.61c4.44-2.57,8.05-.5,8.06,4.6s-3.57,11.32-8,13.88-8.06.52-8.08-4.59S317.42,283.17,321.87,280.61Z" transform="translate(-46.61 -23.25)"/><path class="cls-24" d="M321.84,272.37c8.4-4.85,15.23-.95,15.26,8.7s-6.76,21.41-15.16,26.26-15.24,1-15.27-8.69S313.44,277.22,321.84,272.37Zm.08,26.72c4.44-2.56,8-8.77,8-13.88s-3.62-7.17-8.06-4.6-8,8.78-8,13.89,3.63,7.16,8.08,4.59" transform="translate(-46.61 -23.25)"/><path class="cls-7" d="M310.48,234.6l-.67.38v2.8l.68-.39a1.54,1.54,0,0,0,.7-.74,3.09,3.09,0,0,0,.17-1.19,1.76,1.76,0,0,0-.17-.93C311.08,234.36,310.84,234.39,310.48,234.6Z" transform="translate(-46.61 -23.25)"/><path class="cls-7" d="M332.61,225.26l0,5.45-1.73,1,0-10.52,1.42-.82,1.89,4v-5.06l1.63-.95c-1.61-11.51-10.95-15.67-22.2-9.18-12.36,7.14-22.34,24.44-22.3,38.65s10.08,19.93,22.45,12.79c10.33-6,19-19,21.54-31.42l-.79.45Zm-36.14,26.33,0-4.6-1.41.81,0,4.6-2,1.18,0-10.52,2-1.17v4.25l1.41-.81v-4.26l2-1.17,0,10.52Zm5.69-3.29,0-10.52,2-1.16,0,10.52Zm10.42-11.15a5.6,5.6,0,0,1-1.94,1.79l-.82.47,0,4.46-2,1.17,0-10.52,3.07-1.77c.8-.47,1.41-.55,1.81-.27a2.35,2.35,0,0,1,.6,1.93A4.84,4.84,0,0,1,312.58,237.15Zm8.72-5a5.7,5.7,0,0,1-1.95,1.78l-.81.48v4.46l-2,1.17,0-10.52,3.08-1.78c.81-.46,1.41-.55,1.81-.26a2.37,2.37,0,0,1,.61,1.92A5,5,0,0,1,321.3,232.12Zm3.95,2.86,0-10.52,2-1.17,0,10.51Z" transform="translate(-46.61 -23.25)"/><path class="cls-7" d="M319.18,229.57l-.65.38v2.8l.68-.39a1.54,1.54,0,0,0,.7-.74,3,3,0,0,0,.17-1.19,1.78,1.78,0,0,0-.16-.93C319.8,229.33,319.56,229.35,319.18,229.57Z" transform="translate(-46.61 -23.25)"/><path class="cls-17" d="M305.84,289.79a33.23,33.23,0,0,0-1.89,9.77c0,.13,0,.21,0,.29v.37l-54,31.16,0-9.31Z" transform="translate(-46.61 -23.25)"/><path class="cls-11" d="M342.09,214.57c1-.56,1.64-.68,2.06-.38s.62.93.63,1.91v.67l-2,1.14v-.85a2.12,2.12,0,0,0-.13-.87c-.08-.16-.27-.16-.55,0a1.23,1.23,0,0,0-.58.68,3.89,3.89,0,0,0-.12,1v4.87a1.76,1.76,0,0,0,.17.89c.11.17.31.18.6,0a1.92,1.92,0,0,0,.79-1.82v-1.24l-.83.48v-1.36l2.64-1.52,0,5.45-1.33.77-.12-.81a3.3,3.3,0,0,1-1.48,1.89c-.91.52-1.55.57-1.93.16a3.54,3.54,0,0,1-.59-2.36V219.8a7,7,0,0,1,.63-3.08A5.06,5.06,0,0,1,342.09,214.57Z" transform="translate(-46.61 -23.25)"/><polygon class="cls-11" points="289.23 195.07 289.23 195.37 289.25 202.29 289.26 205.59 288.68 205.93 287.89 206.38 286 202.01 286.02 207.47 284.29 208.46 284.26 197.94 285.69 197.12 287.57 201.1 287.56 196.04 289.2 195.09 289.23 195.07"/><polygon class="cls-11" points="257.55 213.37 257.58 223.89 255.56 225.05 255.53 214.53 257.55 213.37"/><polygon class="cls-11" points="280.64 200.04 280.67 210.55 278.64 211.73 278.61 201.21 280.64 200.04"/><path class="cls-11" d="M321.38,227.45a2.37,2.37,0,0,1,.61,1.92,5,5,0,0,1-.69,2.75,5.7,5.7,0,0,1-1.95,1.78l-.81.48v4.46l-2,1.17,0-10.52,3.08-1.78C320.38,227.25,321,227.16,321.38,227.45Zm-1.47,4.17a3,3,0,0,0,.17-1.19,1.78,1.78,0,0,0-.16-.93c-.12-.17-.36-.15-.74.07l-.65.38v2.8l.68-.39a1.54,1.54,0,0,0,.7-.74" transform="translate(-46.61 -23.25)"/><path class="cls-11" d="M312.67,232.48a2.35,2.35,0,0,1,.6,1.93,4.84,4.84,0,0,1-.69,2.74,5.6,5.6,0,0,1-1.94,1.79l-.82.47,0,4.46-2,1.17,0-10.52,3.07-1.77C311.66,232.28,312.27,232.2,312.67,232.48Zm-1.47,4.17a3.09,3.09,0,0,0,.17-1.19,1.76,1.76,0,0,0-.17-.93c-.12-.17-.36-.14-.72.07l-.67.38v2.8l.68-.39a1.54,1.54,0,0,0,.7-.74" transform="translate(-46.61 -23.25)"/><polygon class="cls-11" points="251.86 216.65 251.89 227.17 249.86 228.34 249.84 223.74 248.44 224.55 248.45 229.16 246.42 230.33 246.39 219.81 248.42 218.64 248.43 222.89 249.84 222.08 249.83 217.82 251.86 216.65"/><path class="cls-11" d="M287.27,246.22c.87-.51,1.46-.55,1.77-.15a3,3,0,0,1,.51,1.82l-1.74,1.26a4.55,4.55,0,0,0-.13-1.12q-.1-.28-.45-.09l0,0a1,1,0,0,0-.39.48,1.59,1.59,0,0,0-.14.65,1.13,1.13,0,0,0,.22.79,2,2,0,0,0,.67.42l.75.34a2.63,2.63,0,0,1,1.06.82,2.58,2.58,0,0,1,.38,1.51,4.23,4.23,0,0,1-.3,1.52,5,5,0,0,1-2.09,2.52c-.87.5-1.52.6-1.95.31s-.66-1-.7-2.13l1.73-1.31a3,3,0,0,0,.22,1.32c.13.22.33.24.59.09a1.12,1.12,0,0,0,.51-1,1.4,1.4,0,0,0-.25-.92,1.87,1.87,0,0,0-.76-.51l-.8-.33a2.12,2.12,0,0,1-.92-.68,2.29,2.29,0,0,1-.32-1.35,4.51,4.51,0,0,1,.68-2.43A5.33,5.33,0,0,1,287.27,246.22Z" transform="translate(-46.61 -23.25)"/><path class="cls-11" d="M223.26,337.54c4.45-2.57,8.05-.51,8.07,4.6s-3.57,11.31-8,13.88-8.06.52-8.08-4.59S218.82,340.1,223.26,337.54Z" transform="translate(-46.61 -23.25)"/><path class="cls-24" d="M223.24,329.3c8.41-4.86,15.23-1,15.26,8.7s-6.75,21.41-15.16,26.26-15.24.95-15.27-8.69S214.84,334.15,223.24,329.3Zm.08,26.72c4.44-2.57,8-8.77,8-13.88s-3.62-7.17-8.07-4.6-8,8.78-8,13.89,3.63,7.15,8.08,4.59" transform="translate(-46.61 -23.25)"/><path class="cls-16" d="M223.23,326.15a28.15,28.15,0,0,0-2.51,1.68l-68.14-39.6c-.49.28-1,.59-1.46.92l-.45.34q-.49.35-1,.72l-.52.43c-.29.24-.58.49-.86.75l-.52.48-.32.3-.32.34c-.35.35-.68.71-1,1.08-.1.12-.22.23-.32.35l-.26.31L145,295l-.39.47-.29.41-.43.57-.29.4c-.16.22-.31.46-.46.69l-.3.44-.12.18c-.27.42-.53.85-.79,1.29l0,.09-.15.26c-.18.31-.35.62-.52.93-.08.14-.15.29-.22.44s-.16.3-.23.46l-.21.39c-.17.36-.33.72-.49,1.08l-.09.19a.14.14,0,0,1,0,.06c-.2.45-.38.9-.56,1.36l-.09.25-.18.5c-.08.23-.17.46-.24.69s-.11.35-.17.53-.13.42-.19.63l-.12.39c-.06.23-.11.46-.17.7s-.13.51-.19.77a2.61,2.61,0,0,0-.06.27c0,.19-.07.38-.1.56-.08.41-.15.81-.21,1.22l-.06.33c0,.26,0,.51-.07.76s0,.36-.05.54c0,.57-.07,1.13-.07,1.68,0,4.79,1.7,8.17,4.44,9.75l70.66,41.07c-2.73-1.59-4.42-5-4.44-9.75,0-.56,0-1.12.07-1.68,0-.18,0-.36.05-.54,0-.37.08-.73.14-1.1s.13-.8.2-1.21.11-.55.17-.83.12-.52.19-.78.18-.72.29-1.09c.06-.2.12-.41.19-.62.13-.41.26-.81.41-1.22.06-.17.11-.33.18-.5.21-.56.43-1.12.67-1.67l.09-.19c.22-.5.45-1,.69-1.48l.23-.45q.36-.69.75-1.38c.05-.08.09-.17.14-.26.31-.53.63-1,1-1.56l.3-.44c.24-.36.49-.73.75-1.08l.42-.58.69-.87c.19-.25.39-.49.59-.72s.38-.44.58-.66c.33-.37.67-.73,1-1.08s.43-.44.65-.64l.51-.48.86-.76.52-.43q.48-.37,1-.72l.46-.33c.48-.33,1-.64,1.45-.92,8.41-4.86,15.23-1,15.26,8.7l2.73-1.58C241.2,325,233.15,320.43,223.23,326.15Z" transform="translate(-46.61 -23.25)"/><path class="cls-5" d="M217.89,264.42,249.73,246l.24,85.34-8.74,5c0-11.39-8.08-16-18-10.27s-17.92,19.61-17.89,31l-15.64,9,0-8.21-.1-34.47Z" transform="translate(-46.61 -23.25)"/><path class="cls-25" d="M215.84,279c1.06-.61,2.09-.28,2.1,1.18l.07,24.58a4.56,4.56,0,0,1-2.06,3.56l-16.57,9.57c-1.72,1-2.69-.72-1.64-2.89l16.49-34.14A4.25,4.25,0,0,1,215.84,279Z" transform="translate(-46.61 -23.25)"/><path class="cls-25" d="M240,260.46c1.15-.66,2.07-.14,2.08,1.18l.08,29.15a4.56,4.56,0,0,1-2.06,3.56L224,303.63c-1.13.66-2.07.13-2.07-1.17l-.08-29.15a4.53,4.53,0,0,1,2.06-3.57Z" transform="translate(-46.61 -23.25)"/><polygon class="cls-6" points="143.07 334.72 72.4 293.65 72.31 259.19 142.97 300.25 143.07 334.72"/><polygon class="cls-26" points="142.97 300.25 72.31 259.19 100.62 200.11 171.28 241.17 142.97 300.25"/><path class="cls-25" d="M125.17,276l20.33-42.42a6.35,6.35,0,0,1,8.91-2.75l54.69,31.79a6.33,6.33,0,0,1,2.53,8.22l-20.32,42.42A6.35,6.35,0,0,1,182.4,316l-54.69-31.79A6.34,6.34,0,0,1,125.17,276Z" transform="translate(-46.61 -23.25)"/><path class="cls-16" d="M147.75,243.88c1.11-.64,2.19-.3,2.19,1.23l.08,25.68a4.73,4.73,0,0,1-2.16,3.71l-17.31,10c-1.79,1-2.81-.75-1.71-3l17.23-35.67A4.46,4.46,0,0,1,147.75,243.88Z" transform="translate(-46.61 -23.25)"/><path class="cls-16" d="M156.17,234.24A4.76,4.76,0,0,0,154,238l.08,30.45c0,1.37,1,1.91,2.17,1.23l16.81-9.7a4.76,4.76,0,0,0,2.15-3.72l0-13.31-17-9.86Z" transform="translate(-46.61 -23.25)"/><polygon class="cls-11" points="171.28 241.17 100.62 200.11 132.45 181.73 203.12 222.79 171.28 241.17"/><path class="cls-5" d="M119,316.9l-1.78,1a6,6,0,0,0-1.19.92l-.39.42c-.1.11-.19.23-.29.35a3.71,3.71,0,0,0-.23.32c-.08.1-.14.21-.21.31l-.19.3-.16.3c-.06.1-.11.21-.16.31s-.09.2-.14.31a3.05,3.05,0,0,0-.13.32l-.12.34c0,.12-.08.24-.11.36a3.48,3.48,0,0,0-.1.41,4.37,4.37,0,0,0-.09.5,5.62,5.62,0,0,0,0,.7,2.5,2.5,0,0,0,1,2.28l70.66,41.07a2.48,2.48,0,0,1-1-2.28,4.12,4.12,0,0,1,0-.7c0-.17.05-.33.08-.5s.06-.27.1-.41.07-.25.11-.37l.12-.33.14-.33c0-.1.09-.2.14-.31l.15-.3.17-.3.18-.3.21-.31.24-.33c.09-.12.19-.23.29-.35a5,5,0,0,1,.39-.41,5.67,5.67,0,0,1,1.19-.92l1.78-1Z" transform="translate(-46.61 -23.25)"/><path class="cls-27" d="M364.49,255.94h0l-.25-88.29a14.12,14.12,0,0,0-7-12.2l-5-2.91-51.55-30a14.17,14.17,0,0,0-14.18,0L186.1,180.49a14.21,14.21,0,0,0-7.08,12.3l0,12.19-31.83,18.38-28.32,59.07.1,34.47-1.78,1a6,6,0,0,0-1.19.92l-.39.42c-.1.11-.19.23-.29.35a3.71,3.71,0,0,0-.23.32c-.08.1-.14.21-.21.31l-.19.3-.16.3c-.06.1-.11.21-.16.31s-.09.2-.14.31a3.05,3.05,0,0,0-.13.32l-.12.34c0,.12-.08.24-.11.36a3.48,3.48,0,0,0-.1.41,4.37,4.37,0,0,0-.09.5,5.62,5.62,0,0,0,0,.7,2.5,2.5,0,0,0,1,2.28l70.66,41.07a1.5,1.5,0,0,1-.24-.2,2.34,2.34,0,0,0,2.78,0l1.78-1,15.64-9c0-11.39,8-25.27,17.89-31s18-1.12,18,10.27l8.74-5h0l54-31.16v-.3c0-.15,0-.23,0-.31a32.78,32.78,0,0,1,1.91-9.83c2.93-8.41,9-16.51,16-20.55s13.07-2.94,16.05,2.07a15.88,15.88,0,0,1,1.94,7.55c0,.12,0,.21,0,.29v.36l24.69-14.25Z" transform="translate(-46.61 -23.25)"/><polyline class="cls-8" points="315.74 137.35 203.06 202.41 203.12 222.79 203.33 308.13"/><path class="cls-8" d="M249.67,225.66,362.35,160.6a14.31,14.31,0,0,0-5.15-5.16l-5-2.91-51.55-30a14.17,14.17,0,0,0-14.18,0L186.1,180.49a14.1,14.1,0,0,0-5.19,5.21Z" transform="translate(-46.61 -23.25)"/><path class="cls-6" d="M189.68,358l0,8.21-1.78,1c-2,1.13-3.57.21-3.58-2A7.83,7.83,0,0,1,187.9,359Z" transform="translate(-46.61 -23.25)"/><path class="cls-8" d="M189.68,358l0,8.21-1.78,1c-2,1.13-3.57.21-3.58-2A7.83,7.83,0,0,1,187.9,359l1.78-1-.1-34.47,28.31-59.08L249.73,246,179.06,205" transform="translate(-46.61 -23.25)"/><path class="cls-23" d="M168.71,239.15l-43.1,43.1a6.24,6.24,0,0,0,2.1,2l2.56,1.49,43.58-43.58Z" transform="translate(-46.61 -23.25)"/><polygon class="cls-23" points="132.09 221.71 88.51 265.29 91.08 266.79 134.66 223.2 132.09 221.71"/><polygon class="cls-23" points="138.08 225.19 94.5 268.77 98.94 271.35 142.52 227.77 138.08 225.19"/></g></g></svg>